<svg width="120" height="120" viewBox="0 0 120 120" fill="none" xmlns="http://www.w3.org/2000/svg">
<path d="M120 60.0002C120 93.1373 93.1372 120 60.0001 120C26.8631 120 0.000137329 93.1373 0.000137329 60.0002C0.000137329 26.8632 26.8631 0.000244141 60.0001 0.000244141C93.1372 0.000244141 120 26.8632 120 60.0002ZM11.4691 60.0002C11.4691 86.8032 33.1972 108.531 60.0001 108.531C86.8031 108.531 108.531 86.8032 108.531 60.0002C108.531 33.1973 86.8031 11.4692 60.0001 11.4692C33.1972 11.4692 11.4691 33.1973 11.4691 60.0002Z" fill="#E7E7E8"/>
<path d="M114.266 60.0002C117.433 60.0002 120.029 57.4268 119.726 54.2742C118.506 41.5438 113.241 29.4796 104.626 19.8935C94.7274 8.87985 81.1059 1.91559 66.3818 0.34059C51.6577 -1.23441 36.8713 2.69111 24.8673 11.3619C12.8634 20.0327 4.4898 32.8363 1.35766 47.3093C-1.77448 61.7823 0.556078 76.9024 7.90095 89.7605C15.2458 102.619 27.0861 112.307 41.1439 116.96C55.2017 121.614 70.4839 120.905 84.0503 114.969C95.8582 109.803 105.64 100.995 112.015 89.9084C113.593 87.1628 112.294 83.7463 109.41 82.4369C106.526 81.1274 103.155 82.4262 101.515 85.1354C96.3547 93.659 88.6663 100.431 79.4531 104.462C68.4799 109.263 56.1189 109.837 44.7483 106.072C33.3776 102.308 23.8006 94.4721 17.8597 84.0718C11.9188 73.6715 10.0337 61.4417 12.5672 49.7352C15.1006 38.0287 21.8736 27.6725 31.583 20.6591C41.2924 13.6458 53.2524 10.4706 65.1619 11.7445C77.0715 13.0185 88.0893 18.6515 96.0956 27.5599C102.818 35.0395 107.018 44.3844 108.193 54.2789C108.566 57.4239 111.099 60.0002 114.266 60.0002Z" fill="#49D293"/>
<path d="M38.8695 50.4482C40.2042 50.4482 41.3989 50.7609 42.4535 51.3862C43.5175 52.0116 44.3575 52.8842 44.9735 54.0042C45.5895 55.1149 45.8975 56.4029 45.8975 57.8682V63.7202C45.8975 65.3069 45.5895 66.6789 44.9735 67.8362C44.3575 68.9842 43.4895 69.8709 42.3695 70.4962C41.2495 71.1122 39.9335 71.4202 38.4215 71.4202C37.4415 71.4202 36.5082 71.2756 35.6215 70.9862C34.7349 70.6969 33.9229 70.2069 33.1855 69.5162L35.9015 66.8002C36.2375 67.1362 36.6249 67.3976 37.0635 67.5842C37.5022 67.7709 37.9549 67.8642 38.4215 67.8642C39.1495 67.8642 39.7795 67.6962 40.3115 67.3602C40.8529 67.0149 41.2682 66.5716 41.5575 66.0302C41.8562 65.4796 42.0055 64.8962 42.0055 64.2802V61.2842L42.6495 61.9842C42.0709 62.5722 41.3989 63.0249 40.6335 63.3422C39.8775 63.6502 39.0935 63.8042 38.2815 63.8042C37.0122 63.8042 35.8922 63.5196 34.9215 62.9502C33.9602 62.3809 33.2042 61.6016 32.6535 60.6122C32.1122 59.6229 31.8415 58.4936 31.8415 57.2242C31.8415 55.9549 32.1635 54.8116 32.8075 53.7942C33.4515 52.7676 34.3055 51.9556 35.3695 51.3582C36.4335 50.7516 37.6002 50.4482 38.8695 50.4482ZM38.8695 54.0882C38.2909 54.0882 37.7589 54.2282 37.2735 54.5082C36.7975 54.7882 36.4149 55.1662 36.1255 55.6422C35.8455 56.1182 35.7055 56.6456 35.7055 57.2242C35.7055 57.8029 35.8455 58.3349 36.1255 58.8202C36.4055 59.2962 36.7835 59.6789 37.2595 59.9682C37.7355 60.2482 38.2629 60.3882 38.8415 60.3882C39.4202 60.3882 39.9475 60.2482 40.4235 59.9682C40.9089 59.6789 41.2915 59.2962 41.5715 58.8202C41.8609 58.3349 42.0055 57.8029 42.0055 57.2242C42.0055 56.6642 41.8655 56.1462 41.5855 55.6702C41.3055 55.1942 40.9275 54.8116 40.4515 54.5222C39.9755 54.2329 39.4482 54.0882 38.8695 54.0882ZM55.8115 71.4202C54.7942 71.4202 53.8375 71.2102 52.9415 70.7902C52.0548 70.3702 51.2895 69.7869 50.6455 69.0402C50.0015 68.2936 49.5395 67.4256 49.2595 66.4362L52.9275 65.4562C53.0488 65.9322 53.2635 66.3429 53.5715 66.6882C53.8888 67.0336 54.2528 67.3042 54.6635 67.5002C55.0835 67.6869 55.5128 67.7802 55.9515 67.7802C56.5302 67.7802 57.0575 67.6402 57.5335 67.3602C58.0188 67.0802 58.4015 66.7022 58.6815 66.2262C58.9708 65.7502 59.1155 65.2229 59.1155 64.6442C59.1155 64.0656 58.9708 63.5382 58.6815 63.0622C58.4015 62.5862 58.0188 62.2082 57.5335 61.9282C57.0575 61.6482 56.5302 61.5082 55.9515 61.5082C55.2422 61.5082 54.6635 61.6296 54.2155 61.8722C53.7675 62.1056 53.4315 62.3296 53.2075 62.5442L49.9875 61.5642L50.6035 50.8402H61.6075V54.3962H52.7035L54.0475 53.1362L53.6275 60.0522L52.9835 59.2682C53.4875 58.8576 54.0615 58.5589 54.7055 58.3722C55.3495 58.1856 55.9515 58.0922 56.5115 58.0922C57.7808 58.0922 58.8962 58.3769 59.8575 58.9462C60.8282 59.5062 61.5842 60.2809 62.1255 61.2702C62.6762 62.2502 62.9515 63.3749 62.9515 64.6442C62.9515 65.9136 62.6202 67.0616 61.9575 68.0882C61.2948 69.1056 60.4222 69.9176 59.3395 70.5242C58.2568 71.1216 57.0808 71.4202 55.8115 71.4202ZM69.3878 71.0002L66.8678 68.4802L84.5078 50.8402L87.0278 53.3882L69.3878 71.0002ZM82.8278 71.4202C81.9038 71.4202 81.0591 71.1962 80.2938 70.7482C79.5378 70.2909 78.9311 69.6842 78.4738 68.9282C78.0165 68.1629 77.7878 67.3136 77.7878 66.3802C77.7878 65.4656 78.0211 64.6256 78.4878 63.8602C78.9545 63.0949 79.5705 62.4836 80.3358 62.0262C81.1011 61.5689 81.9318 61.3402 82.8278 61.3402C83.7518 61.3402 84.5965 61.5689 85.3618 62.0262C86.1271 62.4742 86.7338 63.0809 87.1818 63.8462C87.6391 64.6022 87.8678 65.4469 87.8678 66.3802C87.8678 67.3136 87.6391 68.1629 87.1818 68.9282C86.7338 69.6842 86.1271 70.2909 85.3618 70.7482C84.5965 71.1962 83.7518 71.4202 82.8278 71.4202ZM82.8278 68.2002C83.1545 68.2002 83.4531 68.1162 83.7238 67.9482C84.0038 67.7802 84.2278 67.5609 84.3958 67.2902C84.5638 67.0102 84.6478 66.7069 84.6478 66.3802C84.6478 66.0536 84.5638 65.7549 84.3958 65.4842C84.2278 65.2042 84.0038 64.9802 83.7238 64.8122C83.4531 64.6442 83.1545 64.5602 82.8278 64.5602C82.5011 64.5602 82.1978 64.6442 81.9178 64.8122C81.6471 64.9802 81.4278 65.2042 81.2598 65.4842C81.0918 65.7549 81.0078 66.0536 81.0078 66.3802C81.0078 66.7069 81.0918 67.0102 81.2598 67.2902C81.4278 67.5609 81.6471 67.7802 81.9178 67.9482C82.1978 68.1162 82.5011 68.2002 82.8278 68.2002ZM71.0678 60.5002C70.1438 60.5002 69.2991 60.2762 68.5338 59.8282C67.7685 59.3709 67.1571 58.7642 66.6998 58.0082C66.2518 57.2429 66.0278 56.3936 66.0278 55.4602C66.0278 54.5456 66.2611 53.7056 66.7278 52.9402C67.1945 52.1749 67.8105 51.5636 68.5758 51.1062C69.3411 50.6489 70.1718 50.4202 71.0678 50.4202C71.9918 50.4202 72.8318 50.6489 73.5878 51.1062C74.3531 51.5542 74.9645 52.1609 75.4218 52.9262C75.8791 53.6822 76.1078 54.5269 76.1078 55.4602C76.1078 56.3936 75.8791 57.2429 75.4218 58.0082C74.9645 58.7642 74.3531 59.3709 73.5878 59.8282C72.8318 60.2762 71.9918 60.5002 71.0678 60.5002ZM71.0678 57.2802C71.3945 57.2802 71.6931 57.1962 71.9638 57.0282C72.2438 56.8602 72.4678 56.6409 72.6358 56.3702C72.8038 56.0902 72.8878 55.7869 72.8878 55.4602C72.8878 55.1336 72.8038 54.8349 72.6358 54.5642C72.4678 54.2842 72.2438 54.0602 71.9638 53.8922C71.6931 53.7242 71.3945 53.6402 71.0678 53.6402C70.7411 53.6402 70.4378 53.7242 70.1578 53.8922C69.8871 54.0602 69.6678 54.2842 69.4998 54.5642C69.3318 54.8349 69.2478 55.1336 69.2478 55.4602C69.2478 55.7869 69.3318 56.0902 69.4998 56.3702C69.6678 56.6409 69.8871 56.8602 70.1578 57.0282C70.4378 57.1962 70.7411 57.2802 71.0678 57.2802Z" fill="#131318"/>
</svg>
