<svg width="120" height="120" viewBox="0 0 120 120" fill="none" xmlns="http://www.w3.org/2000/svg">
<path d="M120 60C120 93.1371 93.1371 120 60.0001 120C26.863 120 6.10352e-05 93.1371 6.10352e-05 60C6.10352e-05 26.8629 26.863 0 60.0001 0C93.1371 0 120 26.8629 120 60ZM11.4691 60C11.4691 86.8029 33.1971 108.531 60.0001 108.531C86.803 108.531 108.531 86.8029 108.531 60C108.531 33.1971 86.803 11.469 60.0001 11.469C33.1971 11.469 11.4691 33.1971 11.4691 60Z" fill="#E7E7E8"/>
<path d="M114.266 60C117.433 60 120.028 57.4265 119.726 54.2739C118.63 42.8387 114.268 31.914 107.102 22.8328C98.7478 12.2455 87.0702 4.78141 73.9535 1.64503C60.8367 -1.49135 47.0458 -0.117159 34.8058 5.54589C22.5659 11.2089 12.5908 20.8306 6.48998 32.8583C0.38919 44.8861 -1.48146 58.6185 1.17984 71.8398C3.84114 85.0612 10.8792 97.0004 21.1584 105.731C31.4376 114.462 44.3585 119.475 57.8362 119.961C69.3966 120.378 80.7883 117.444 90.6625 111.574C93.3847 109.955 93.9277 106.34 92.0568 103.785V103.785C90.1859 101.229 86.611 100.708 83.8529 102.265C76.0893 106.646 67.2325 108.824 58.2499 108.499C47.3484 108.106 36.8973 104.051 28.583 96.9895C20.2686 89.9277 14.5759 80.2707 12.4233 69.5766C10.2707 58.8826 11.7838 47.7751 16.7184 38.0465C21.6531 28.3178 29.7214 20.5354 39.6217 15.9548C49.522 11.3742 60.6768 10.2627 71.2863 12.7996C81.8958 15.3364 91.3412 21.3737 98.0985 29.9373C103.666 36.9936 107.142 45.426 108.193 54.2786C108.566 57.4236 111.098 60 114.266 60V60Z" fill="#FF4240"/>
<path d="M39.7647 71.42C38.402 71.42 37.1887 71.1447 36.1247 70.594C35.07 70.034 34.2394 69.2687 33.6327 68.298C33.0354 67.318 32.7367 66.2027 32.7367 64.952C32.7367 63.888 32.9747 62.8847 33.4507 61.942C33.936 60.9993 34.6314 60.2293 35.5367 59.632L35.4527 60.808C34.7714 60.1453 34.2347 59.4453 33.8427 58.708C33.46 57.9707 33.2687 57.14 33.2687 56.216C33.2687 55.0493 33.544 54.032 34.0947 53.164C34.6547 52.296 35.42 51.624 36.3907 51.148C37.3707 50.6627 38.4954 50.42 39.7647 50.42C41.034 50.42 42.154 50.6627 43.1247 51.148C44.1047 51.624 44.87 52.296 45.4207 53.164C45.9807 54.032 46.2607 55.0493 46.2607 56.216C46.2607 57.14 46.0787 57.9707 45.7147 58.708C45.3507 59.436 44.7954 60.1453 44.0487 60.836V59.66C44.9354 60.22 45.6167 60.976 46.0927 61.928C46.578 62.88 46.8207 63.888 46.8207 64.952C46.8207 66.2027 46.5174 67.318 45.9107 68.298C45.304 69.2687 44.4687 70.034 43.4047 70.594C42.3407 71.1447 41.1274 71.42 39.7647 71.42ZM39.7647 67.836C40.6607 67.836 41.3887 67.5933 41.9487 67.108C42.5087 66.6227 42.7887 65.904 42.7887 64.952C42.7887 64.0093 42.5087 63.2907 41.9487 62.796C41.3887 62.292 40.6607 62.04 39.7647 62.04C38.8687 62.04 38.1454 62.292 37.5947 62.796C37.044 63.2907 36.7687 64.0093 36.7687 64.952C36.7687 65.904 37.044 66.6227 37.5947 67.108C38.1454 67.5933 38.8687 67.836 39.7647 67.836ZM39.7647 58.428C40.4927 58.428 41.0854 58.2507 41.5427 57.896C42 57.532 42.2287 56.972 42.2287 56.216C42.2287 55.46 42 54.9 41.5427 54.536C41.0854 54.1627 40.4927 53.976 39.7647 53.976C39.0367 53.976 38.444 54.1627 37.9867 54.536C37.5294 54.9 37.3007 55.46 37.3007 56.216C37.3007 56.972 37.5294 57.532 37.9867 57.896C38.444 58.2507 39.0367 58.428 39.7647 58.428ZM51.47 71L58.246 54.424H49.622V50.84H62.334V54.424L55.586 71H51.47ZM68.7725 71L66.2525 68.48L83.8925 50.84L86.4125 53.388L68.7725 71ZM82.2125 71.42C81.2885 71.42 80.4438 71.196 79.6785 70.748C78.9225 70.2907 78.3158 69.684 77.8585 68.928C77.4012 68.1627 77.1725 67.3133 77.1725 66.38C77.1725 65.4653 77.4058 64.6253 77.8725 63.86C78.3392 63.0947 78.9552 62.4833 79.7205 62.026C80.4858 61.5687 81.3165 61.34 82.2125 61.34C83.1365 61.34 83.9812 61.5687 84.7465 62.026C85.5118 62.474 86.1185 63.0807 86.5665 63.846C87.0238 64.602 87.2525 65.4467 87.2525 66.38C87.2525 67.3133 87.0238 68.1627 86.5665 68.928C86.1185 69.684 85.5118 70.2907 84.7465 70.748C83.9812 71.196 83.1365 71.42 82.2125 71.42ZM82.2125 68.2C82.5391 68.2 82.8378 68.116 83.1085 67.948C83.3885 67.78 83.6125 67.5607 83.7805 67.29C83.9485 67.01 84.0325 66.7067 84.0325 66.38C84.0325 66.0533 83.9485 65.7547 83.7805 65.484C83.6125 65.204 83.3885 64.98 83.1085 64.812C82.8378 64.644 82.5391 64.56 82.2125 64.56C81.8858 64.56 81.5825 64.644 81.3025 64.812C81.0318 64.98 80.8125 65.204 80.6445 65.484C80.4765 65.7547 80.3925 66.0533 80.3925 66.38C80.3925 66.7067 80.4765 67.01 80.6445 67.29C80.8125 67.5607 81.0318 67.78 81.3025 67.948C81.5825 68.116 81.8858 68.2 82.2125 68.2ZM70.4525 60.5C69.5285 60.5 68.6838 60.276 67.9185 59.828C67.1531 59.3707 66.5418 58.764 66.0845 58.008C65.6365 57.2427 65.4125 56.3933 65.4125 55.46C65.4125 54.5453 65.6458 53.7053 66.1125 52.94C66.5791 52.1747 67.1951 51.5633 67.9605 51.106C68.7258 50.6487 69.5565 50.42 70.4525 50.42C71.3765 50.42 72.2165 50.6487 72.9725 51.106C73.7378 51.554 74.3492 52.1607 74.8065 52.926C75.2638 53.682 75.4925 54.5267 75.4925 55.46C75.4925 56.3933 75.2638 57.2427 74.8065 58.008C74.3492 58.764 73.7378 59.3707 72.9725 59.828C72.2165 60.276 71.3765 60.5 70.4525 60.5ZM70.4525 57.28C70.7792 57.28 71.0778 57.196 71.3485 57.028C71.6285 56.86 71.8525 56.6407 72.0205 56.37C72.1885 56.09 72.2725 55.7867 72.2725 55.46C72.2725 55.1333 72.1885 54.8347 72.0205 54.564C71.8525 54.284 71.6285 54.06 71.3485 53.892C71.0778 53.724 70.7792 53.64 70.4525 53.64C70.1258 53.64 69.8225 53.724 69.5425 53.892C69.2718 54.06 69.0525 54.284 68.8845 54.564C68.7165 54.8347 68.6325 55.1333 68.6325 55.46C68.6325 55.7867 68.7165 56.09 68.8845 56.37C69.0525 56.6407 69.2718 56.86 69.5425 57.028C69.8225 57.196 70.1258 57.28 70.4525 57.28Z" fill="#131318"/>
</svg>
