<svg width="120" height="120" viewBox="0 0 120 120" fill="none" xmlns="http://www.w3.org/2000/svg">
<path d="M120 60C120 93.1371 93.1371 120 60.0001 120C26.863 120 6.10352e-05 93.1371 6.10352e-05 60C6.10352e-05 26.8629 26.863 0 60.0001 0C93.1371 0 120 26.8629 120 60ZM11.4691 60C11.4691 86.8029 33.1971 108.531 60.0001 108.531C86.803 108.531 108.531 86.8029 108.531 60C108.531 33.1971 86.803 11.469 60.0001 11.469C33.1971 11.469 11.4691 33.1971 11.4691 60Z" fill="#E7E7E8"/>
<path d="M114.266 60C117.433 60 120.028 57.4265 119.726 54.2739C118.63 42.8387 114.268 31.914 107.102 22.8328C98.7478 12.2455 87.0702 4.78141 73.9535 1.64503C60.8367 -1.49135 47.0458 -0.117159 34.8058 5.54589C22.5659 11.2089 12.5908 20.8306 6.48998 32.8583C0.38919 44.8861 -1.48146 58.6185 1.17984 71.8398C3.84114 85.0612 10.8792 97.0004 21.1584 105.731C31.4376 114.462 44.3585 119.475 57.8362 119.961C69.3966 120.378 80.7883 117.444 90.6625 111.574C93.3847 109.955 93.9277 106.34 92.0568 103.785C90.1859 101.229 86.611 100.708 83.8529 102.265C76.0893 106.646 67.2325 108.824 58.2499 108.499C47.3484 108.106 36.8973 104.051 28.583 96.9895C20.2686 89.9277 14.5759 80.2707 12.4233 69.5766C10.2707 58.8826 11.7838 47.7751 16.7184 38.0465C21.6531 28.3178 29.7214 20.5354 39.6217 15.9548C49.522 11.3742 60.6768 10.2627 71.2863 12.7996C81.8958 15.3364 91.3412 21.3737 98.0985 29.9373C103.666 36.9936 107.142 45.426 108.193 54.2786C108.566 57.4236 111.098 60 114.266 60Z" fill="#4C8DF1"/>
<path d="M37.9463 71.42C36.5837 71.42 35.3703 71.1447 34.3063 70.594C33.2517 70.034 32.421 69.2687 31.8143 68.298C31.217 67.318 30.9183 66.2027 30.9183 64.952C30.9183 63.888 31.1563 62.8847 31.6323 61.942C32.1177 60.9993 32.813 60.2293 33.7183 59.632L33.6343 60.808C32.953 60.1453 32.4163 59.4453 32.0243 58.708C31.6417 57.9707 31.4503 57.14 31.4503 56.216C31.4503 55.0493 31.7257 54.032 32.2763 53.164C32.8363 52.296 33.6017 51.624 34.5723 51.148C35.5523 50.6627 36.677 50.42 37.9463 50.42C39.2157 50.42 40.3357 50.6627 41.3063 51.148C42.2863 51.624 43.0517 52.296 43.6023 53.164C44.1623 54.032 44.4423 55.0493 44.4423 56.216C44.4423 57.14 44.2603 57.9707 43.8963 58.708C43.5323 59.436 42.977 60.1453 42.2303 60.836V59.66C43.117 60.22 43.7983 60.976 44.2743 61.928C44.7597 62.88 45.0023 63.888 45.0023 64.952C45.0023 66.2027 44.699 67.318 44.0923 68.298C43.4857 69.2687 42.6503 70.034 41.5863 70.594C40.5223 71.1447 39.309 71.42 37.9463 71.42ZM37.9463 67.836C38.8423 67.836 39.5703 67.5933 40.1303 67.108C40.6903 66.6227 40.9703 65.904 40.9703 64.952C40.9703 64.0093 40.6903 63.2907 40.1303 62.796C39.5703 62.292 38.8423 62.04 37.9463 62.04C37.0503 62.04 36.327 62.292 35.7763 62.796C35.2257 63.2907 34.9503 64.0093 34.9503 64.952C34.9503 65.904 35.2257 66.6227 35.7763 67.108C36.327 67.5933 37.0503 67.836 37.9463 67.836ZM37.9463 58.428C38.6743 58.428 39.267 58.2507 39.7243 57.896C40.1817 57.532 40.4103 56.972 40.4103 56.216C40.4103 55.46 40.1817 54.9 39.7243 54.536C39.267 54.1627 38.6743 53.976 37.9463 53.976C37.2183 53.976 36.6257 54.1627 36.1683 54.536C35.711 54.9 35.4823 55.46 35.4823 56.216C35.4823 56.972 35.711 57.532 36.1683 57.896C36.6257 58.2507 37.2183 58.428 37.9463 58.428ZM56.1197 71.42C54.6263 71.42 53.3197 71.1073 52.1997 70.482C51.0797 69.8567 50.207 68.984 49.5817 67.864C48.9563 66.744 48.6437 65.4373 48.6437 63.944V57.896C48.6437 56.4027 48.9563 55.096 49.5817 53.976C50.207 52.856 51.0797 51.9833 52.1997 51.358C53.3197 50.7327 54.6263 50.42 56.1197 50.42C57.613 50.42 58.9197 50.7327 60.0397 51.358C61.1597 51.9833 62.0323 52.856 62.6577 53.976C63.283 55.096 63.5957 56.4027 63.5957 57.896V63.944C63.5957 65.4373 63.283 66.744 62.6577 67.864C62.0323 68.984 61.1597 69.8567 60.0397 70.482C58.9197 71.1073 57.613 71.42 56.1197 71.42ZM56.1197 67.808C56.7917 67.808 57.3983 67.6493 57.9397 67.332C58.481 67.0147 58.9103 66.5853 59.2277 66.044C59.545 65.5027 59.7037 64.896 59.7037 64.224V57.588C59.7037 56.916 59.545 56.3093 59.2277 55.768C58.9103 55.2267 58.481 54.7973 57.9397 54.48C57.3983 54.1627 56.7917 54.004 56.1197 54.004C55.4477 54.004 54.841 54.1627 54.2997 54.48C53.7583 54.7973 53.329 55.2267 53.0117 55.768C52.6943 56.3093 52.5357 56.916 52.5357 57.588V64.224C52.5357 64.896 52.6943 65.5027 53.0117 66.044C53.329 66.5853 53.7583 67.0147 54.2997 67.332C54.841 67.6493 55.4477 67.808 56.1197 67.808ZM70.5908 71L68.0708 68.48L85.7108 50.84L88.2308 53.388L70.5908 71ZM84.0308 71.42C83.1068 71.42 82.2622 71.196 81.4968 70.748C80.7408 70.2907 80.1342 69.684 79.6768 68.928C79.2195 68.1627 78.9908 67.3133 78.9908 66.38C78.9908 65.4653 79.2242 64.6253 79.6908 63.86C80.1575 63.0947 80.7735 62.4833 81.5388 62.026C82.3042 61.5687 83.1348 61.34 84.0308 61.34C84.9548 61.34 85.7995 61.5687 86.5648 62.026C87.3302 62.474 87.9368 63.0807 88.3848 63.846C88.8422 64.602 89.0708 65.4467 89.0708 66.38C89.0708 67.3133 88.8422 68.1627 88.3848 68.928C87.9368 69.684 87.3302 70.2907 86.5648 70.748C85.7995 71.196 84.9548 71.42 84.0308 71.42ZM84.0308 68.2C84.3575 68.2 84.6562 68.116 84.9268 67.948C85.2068 67.78 85.4308 67.5607 85.5988 67.29C85.7668 67.01 85.8508 66.7067 85.8508 66.38C85.8508 66.0533 85.7668 65.7547 85.5988 65.484C85.4308 65.204 85.2068 64.98 84.9268 64.812C84.6562 64.644 84.3575 64.56 84.0308 64.56C83.7042 64.56 83.4008 64.644 83.1208 64.812C82.8502 64.98 82.6308 65.204 82.4628 65.484C82.2948 65.7547 82.2108 66.0533 82.2108 66.38C82.2108 66.7067 82.2948 67.01 82.4628 67.29C82.6308 67.5607 82.8502 67.78 83.1208 67.948C83.4008 68.116 83.7042 68.2 84.0308 68.2ZM72.2708 60.5C71.3468 60.5 70.5022 60.276 69.7368 59.828C68.9715 59.3707 68.3602 58.764 67.9028 58.008C67.4548 57.2427 67.2308 56.3933 67.2308 55.46C67.2308 54.5453 67.4642 53.7053 67.9308 52.94C68.3975 52.1747 69.0135 51.5633 69.7788 51.106C70.5442 50.6487 71.3748 50.42 72.2708 50.42C73.1948 50.42 74.0348 50.6487 74.7908 51.106C75.5562 51.554 76.1675 52.1607 76.6248 52.926C77.0822 53.682 77.3108 54.5267 77.3108 55.46C77.3108 56.3933 77.0822 57.2427 76.6248 58.008C76.1675 58.764 75.5562 59.3707 74.7908 59.828C74.0348 60.276 73.1948 60.5 72.2708 60.5ZM72.2708 57.28C72.5975 57.28 72.8962 57.196 73.1668 57.028C73.4468 56.86 73.6708 56.6407 73.8388 56.37C74.0068 56.09 74.0908 55.7867 74.0908 55.46C74.0908 55.1333 74.0068 54.8347 73.8388 54.564C73.6708 54.284 73.4468 54.06 73.1668 53.892C72.8962 53.724 72.5975 53.64 72.2708 53.64C71.9442 53.64 71.6408 53.724 71.3608 53.892C71.0902 54.06 70.8708 54.284 70.7028 54.564C70.5348 54.8347 70.4508 55.1333 70.4508 55.46C70.4508 55.7867 70.5348 56.09 70.7028 56.37C70.8708 56.6407 71.0902 56.86 71.3608 57.028C71.6408 57.196 71.9442 57.28 72.2708 57.28Z" fill="#131318"/>
</svg>
