<svg width="120" height="120" viewBox="0 0 120 120" fill="none" xmlns="http://www.w3.org/2000/svg">
<path d="M120 60.0002C120 93.1373 93.1371 120 60 120C26.8629 120 0 93.1373 0 60.0002C0 26.8632 26.8629 0.000244141 60 0.000244141C93.1371 0.000244141 120 26.8632 120 60.0002ZM11.469 60.0002C11.469 86.8032 33.1971 108.531 60 108.531C86.8029 108.531 108.531 86.8032 108.531 60.0002C108.531 33.1973 86.8029 11.4692 60 11.4692C33.1971 11.4692 11.469 33.1973 11.469 60.0002Z" fill="#E7E7E8"/>
<path d="M110.134 80.7679C113.06 81.98 116.443 80.5959 117.371 77.5676C120.973 65.8035 120.885 53.1653 117.038 41.3816C112.596 27.7735 103.435 16.2019 91.2094 8.75602C78.9837 1.3101 64.4986 -1.51946 50.3695 0.778182C36.2403 3.07583 23.3982 10.3493 14.1616 21.2853C4.92507 32.2214 -0.0972474 46.0994 0.00142546 60.4138C0.100098 74.7282 5.31326 88.5357 14.6997 99.3434C24.0862 110.151 37.0273 117.247 51.1868 119.349C63.4479 121.17 75.9229 119.143 86.9184 113.623C89.7488 112.202 90.5474 108.635 88.8628 105.953C87.1783 103.271 83.6496 102.497 80.7878 103.854C72.1379 107.954 62.4244 109.423 52.8714 108.005C41.4186 106.304 30.9511 100.565 23.3589 91.823C15.7666 83.0811 11.55 71.913 11.4702 60.3348C11.3903 48.7566 15.4526 37.5313 22.9236 28.6857C30.3946 19.8401 40.782 13.9569 52.2103 12.0985C63.6387 10.24 75.3549 12.5287 85.2438 18.5514C95.1326 24.574 102.542 33.9337 106.135 44.9406C109.132 54.1216 109.309 63.944 106.713 73.1579C105.855 76.2064 107.208 79.5558 110.134 80.7679Z" fill="#FFB546"/>
<path d="M37.68 50.4482C39.0146 50.4482 40.2093 50.7609 41.264 51.3862C42.328 52.0116 43.168 52.8842 43.784 54.0042C44.4 55.1149 44.708 56.4029 44.708 57.8682V63.7202C44.708 65.3069 44.4 66.6789 43.784 67.8362C43.168 68.9842 42.3 69.8709 41.18 70.4962C40.06 71.1122 38.744 71.4202 37.232 71.4202C36.252 71.4202 35.3186 71.2756 34.432 70.9862C33.5453 70.6969 32.7333 70.2069 31.996 69.5162L34.712 66.8002C35.048 67.1362 35.4353 67.3976 35.874 67.5842C36.3126 67.7709 36.7653 67.8642 37.232 67.8642C37.96 67.8642 38.59 67.6962 39.122 67.3602C39.6633 67.0149 40.0786 66.5716 40.368 66.0302C40.6666 65.4796 40.816 64.8962 40.816 64.2802V61.2842L41.46 61.9842C40.8813 62.5722 40.2093 63.0249 39.444 63.3422C38.688 63.6502 37.904 63.8042 37.092 63.8042C35.8226 63.8042 34.7026 63.5196 33.732 62.9502C32.7706 62.3809 32.0146 61.6016 31.464 60.6122C30.9226 59.6229 30.652 58.4936 30.652 57.2242C30.652 55.9549 30.974 54.8116 31.618 53.7942C32.262 52.7676 33.116 51.9556 34.18 51.3582C35.244 50.7516 36.4106 50.4482 37.68 50.4482ZM37.68 54.0882C37.1013 54.0882 36.5693 54.2282 36.084 54.5082C35.608 54.7882 35.2253 55.1662 34.936 55.6422C34.656 56.1182 34.516 56.6456 34.516 57.2242C34.516 57.8029 34.656 58.3349 34.936 58.8202C35.216 59.2962 35.594 59.6789 36.07 59.9682C36.546 60.2482 37.0733 60.3882 37.652 60.3882C38.2306 60.3882 38.758 60.2482 39.234 59.9682C39.7193 59.6789 40.102 59.2962 40.382 58.8202C40.6713 58.3349 40.816 57.8029 40.816 57.2242C40.816 56.6642 40.676 56.1462 40.396 55.6702C40.116 55.1942 39.738 54.8116 39.262 54.5222C38.786 54.2329 38.2586 54.0882 37.68 54.0882ZM56.1059 71.4202C54.6126 71.4202 53.3059 71.1076 52.1859 70.4822C51.0659 69.8569 50.1933 68.9842 49.5679 67.8642C48.9426 66.7442 48.6299 65.4376 48.6299 63.9442V57.8962C48.6299 56.4029 48.9426 55.0962 49.5679 53.9762C50.1933 52.8562 51.0659 51.9836 52.1859 51.3582C53.3059 50.7329 54.6126 50.4202 56.1059 50.4202C57.5993 50.4202 58.9059 50.7329 60.0259 51.3582C61.1459 51.9836 62.0186 52.8562 62.6439 53.9762C63.2693 55.0962 63.5819 56.4029 63.5819 57.8962V63.9442C63.5819 65.4376 63.2693 66.7442 62.6439 67.8642C62.0186 68.9842 61.1459 69.8569 60.0259 70.4822C58.9059 71.1076 57.5993 71.4202 56.1059 71.4202ZM56.1059 67.8082C56.7779 67.8082 57.3846 67.6496 57.9259 67.3322C58.4673 67.0149 58.8966 66.5856 59.2139 66.0442C59.5313 65.5029 59.6899 64.8962 59.6899 64.2242V57.5882C59.6899 56.9162 59.5313 56.3096 59.2139 55.7682C58.8966 55.2269 58.4673 54.7976 57.9259 54.4802C57.3846 54.1629 56.7779 54.0042 56.1059 54.0042C55.4339 54.0042 54.8273 54.1629 54.2859 54.4802C53.7446 54.7976 53.3153 55.2269 52.9979 55.7682C52.6806 56.3096 52.5219 56.9162 52.5219 57.5882V64.2242C52.5219 64.8962 52.6806 65.5029 52.9979 66.0442C53.3153 66.5856 53.7446 67.0149 54.2859 67.3322C54.8273 67.6496 55.4339 67.8082 56.1059 67.8082ZM70.5771 71.0002L68.0571 68.4802L85.6971 50.8402L88.2171 53.3882L70.5771 71.0002ZM84.0171 71.4202C83.0931 71.4202 82.2484 71.1962 81.4831 70.7482C80.7271 70.2909 80.1204 69.6842 79.6631 68.9282C79.2058 68.1629 78.9771 67.3136 78.9771 66.3802C78.9771 65.4656 79.2104 64.6256 79.6771 63.8602C80.1438 63.0949 80.7598 62.4836 81.5251 62.0262C82.2904 61.5689 83.1211 61.3402 84.0171 61.3402C84.9411 61.3402 85.7858 61.5689 86.5511 62.0262C87.3164 62.4742 87.9231 63.0809 88.3711 63.8462C88.8284 64.6022 89.0571 65.4469 89.0571 66.3802C89.0571 67.3136 88.8284 68.1629 88.3711 68.9282C87.9231 69.6842 87.3164 70.2909 86.5511 70.7482C85.7858 71.1962 84.9411 71.4202 84.0171 71.4202ZM84.0171 68.2002C84.3438 68.2002 84.6424 68.1162 84.9131 67.9482C85.1931 67.7802 85.4171 67.5609 85.5851 67.2902C85.7531 67.0102 85.8371 66.7069 85.8371 66.3802C85.8371 66.0536 85.7531 65.7549 85.5851 65.4842C85.4171 65.2042 85.1931 64.9802 84.9131 64.8122C84.6424 64.6442 84.3438 64.5602 84.0171 64.5602C83.6904 64.5602 83.3871 64.6442 83.1071 64.8122C82.8364 64.9802 82.6171 65.2042 82.4491 65.4842C82.2811 65.7549 82.1971 66.0536 82.1971 66.3802C82.1971 66.7069 82.2811 67.0102 82.4491 67.2902C82.6171 67.5609 82.8364 67.7802 83.1071 67.9482C83.3871 68.1162 83.6904 68.2002 84.0171 68.2002ZM72.2571 60.5002C71.3331 60.5002 70.4884 60.2762 69.7231 59.8282C68.9578 59.3709 68.3464 58.7642 67.8891 58.0082C67.4411 57.2429 67.2171 56.3936 67.2171 55.4602C67.2171 54.5456 67.4504 53.7056 67.9171 52.9402C68.3838 52.1749 68.9998 51.5636 69.7651 51.1062C70.5304 50.6489 71.3611 50.4202 72.2571 50.4202C73.1811 50.4202 74.0211 50.6489 74.7771 51.1062C75.5424 51.5542 76.1538 52.1609 76.6111 52.9262C77.0684 53.6822 77.2971 54.5269 77.2971 55.4602C77.2971 56.3936 77.0684 57.2429 76.6111 58.0082C76.1538 58.7642 75.5424 59.3709 74.7771 59.8282C74.0211 60.2762 73.1811 60.5002 72.2571 60.5002ZM72.2571 57.2802C72.5838 57.2802 72.8824 57.1962 73.1531 57.0282C73.4331 56.8602 73.6571 56.6409 73.8251 56.3702C73.9931 56.0902 74.0771 55.7869 74.0771 55.4602C74.0771 55.1336 73.9931 54.8349 73.8251 54.5642C73.6571 54.2842 73.4331 54.0602 73.1531 53.8922C72.8824 53.7242 72.5838 53.6402 72.2571 53.6402C71.9304 53.6402 71.6271 53.7242 71.3471 53.8922C71.0764 54.0602 70.8571 54.2842 70.6891 54.5642C70.5211 54.8349 70.4371 55.1336 70.4371 55.4602C70.4371 55.7869 70.5211 56.0902 70.6891 56.3702C70.8571 56.6409 71.0764 56.8602 71.3471 57.0282C71.6271 57.1962 71.9304 57.2802 72.2571 57.2802Z" fill="#131318"/>
</svg>
